<svg id="Layer_1" data-name="Layer 1" xmlns="http://www.w3.org/2000/svg" xmlns:xlink="http://www.w3.org/1999/xlink" viewBox="0 0 1000 1000"><defs><style>.cls-1{fill:url(#radial-gradient);}.cls-2{fill:url(#linear-gradient);}.cls-3{fill:url(#linear-gradient-2);}.cls-4{fill:url(#linear-gradient-3);}.cls-5{fill:url(#linear-gradient-4);}</style><radialGradient id="radial-gradient" cx="500" cy="500" r="500" gradientUnits="userSpaceOnUse"><stop offset="0" stop-color="#fff"/><stop offset="0.01" stop-color="#feffff"/><stop offset="0.2" stop-color="#dcf7ff"/><stop offset="0.39" stop-color="#c1f0ff"/><stop offset="0.58" stop-color="#aeecff"/><stop offset="0.79" stop-color="#a3e9ff"/><stop offset="1" stop-color="#9fe8ff"/></radialGradient><linearGradient id="linear-gradient" x1="212.5" y1="395.33" x2="663.33" y2="395.33" gradientUnits="userSpaceOnUse"><stop offset="0" stop-color="#00044c"/><stop offset="0.2" stop-color="#005191"/><stop offset="0.49" stop-color="#3b8197"/><stop offset="1" stop-color="#00072a"/></linearGradient><linearGradient id="linear-gradient-2" x1="398.83" y1="441.92" x2="756.5" y2="441.92" xlink:href="#linear-gradient"/><linearGradient id="linear-gradient-3" y1="535.08" x2="570.17" y2="535.08" xlink:href="#linear-gradient"/><linearGradient id="linear-gradient-4" x1="305.67" y1="581.67" x2="756.5" y2="581.67" xlink:href="#linear-gradient"/></defs><title>logo_01</title><rect class="cls-1" width="1000" height="1000"/><polygon class="cls-2" points="585.17 216.5 570.17 216.5 492 216.5 477 216.5 398.83 216.5 383.83 216.5 305.67 216.5 290.67 216.5 212.5 216.5 212.5 294.67 290.67 294.67 305.67 294.67 383.83 294.67 398.83 294.67 477 294.67 492 294.67 570.17 294.67 585.17 294.67 585.17 309.67 585.17 387.83 585.17 402.83 585.17 481 585.17 496 585.17 574.17 663.33 574.17 663.33 496 663.33 481 663.33 402.83 663.33 387.83 663.33 309.67 663.33 294.67 663.33 216.5 585.17 216.5"/><polygon class="cls-3" points="678.33 216.5 678.33 294.67 678.33 309.67 678.33 387.83 678.33 402.83 678.33 481 678.33 496 678.33 574.17 678.33 589.17 663.33 589.17 585.17 589.17 570.17 589.17 492 589.17 477 589.17 398.83 589.17 398.83 667.33 477 667.33 492 667.33 570.17 667.33 585.17 667.33 663.33 667.33 678.33 667.33 756.5 667.33 756.5 589.17 756.5 574.17 756.5 496 756.5 481 756.5 402.83 756.5 387.83 756.5 309.67 756.5 294.67 756.5 216.5 678.33 216.5"/><polygon class="cls-4" points="477 309.67 398.83 309.67 383.83 309.67 305.67 309.67 290.67 309.67 212.5 309.67 212.5 387.83 212.5 402.83 212.5 481 212.5 496 212.5 574.17 212.5 589.17 212.5 667.33 212.5 682.33 212.5 760.5 290.67 760.5 290.67 682.33 290.67 667.33 290.67 589.17 290.67 574.17 290.67 496 290.67 481 290.67 402.83 290.67 387.83 305.67 387.83 383.83 387.83 398.83 387.83 477 387.83 492 387.83 570.17 387.83 570.17 309.67 492 309.67 477 309.67"/><polygon class="cls-5" points="678.33 682.33 663.33 682.33 585.17 682.33 570.17 682.33 492 682.33 477 682.33 398.83 682.33 383.83 682.33 383.83 667.33 383.83 589.17 383.83 574.17 383.83 496 383.83 481 383.83 402.83 305.67 402.83 305.67 481 305.67 496 305.67 574.17 305.67 589.17 305.67 667.33 305.67 682.33 305.67 760.5 383.83 760.5 398.83 760.5 477 760.5 492 760.5 570.17 760.5 585.17 760.5 663.33 760.5 678.33 760.5 756.5 760.5 756.5 682.33 678.33 682.33"/></svg>