<svg xmlns="http://www.w3.org/2000/svg" xmlns:xlink="http://www.w3.org/1999/xlink" viewBox="0 0 1000 1000"><defs><style>.cls-1{isolation:isolate;}.cls-2{fill:#f9e8a5;}.cls-3{fill:url(#linear-gradient);}.cls-4{fill:url(#linear-gradient-2);}.cls-5{fill:#c62020;opacity:0.43;mix-blend-mode:multiply;}.cls-6{fill:url(#linear-gradient-3);}.cls-7{fill:url(#linear-gradient-4);}.cls-8{fill:#fff;}</style><linearGradient id="linear-gradient" x1="280.61" y1="445.21" x2="666.95" y2="445.21" gradientUnits="userSpaceOnUse"><stop offset="0" stop-color="#fff"/><stop offset="0.59" stop-color="#ff042a"/></linearGradient><linearGradient id="linear-gradient-2" x1="557.82" y1="531.76" x2="719.39" y2="531.76" gradientUnits="userSpaceOnUse"><stop offset="0" stop-color="#fff"/><stop offset="0.95" stop-color="#ff1135"/><stop offset="1" stop-color="#ff042a"/></linearGradient><linearGradient id="linear-gradient-3" x1="518.17" y1="416.34" x2="709.68" y2="416.34" xlink:href="#linear-gradient-2"/><linearGradient id="linear-gradient-4" x1="301.79" y1="626.29" x2="418.68" y2="516.33" gradientUnits="userSpaceOnUse"><stop offset="0" stop-color="#fff"/><stop offset="0.95" stop-color="#ff1135"/></linearGradient></defs><title>logo_02</title><g class="cls-1"><g id="Layer_1" data-name="Layer 1"><rect class="cls-2" x="-0.26" y="0.36" width="1000" height="1000"/><path class="cls-3" d="M667,486.59v.35a196.66,196.66,0,0,1-48.23,42.35,185.5,185.5,0,0,1-98.2,28.12c-32.23,0-52.52-7.49-79.25-22.17a176.56,176.56,0,0,1-24.53-16.1c-6.17-4.76-24.32-19.79-35.84-27.74S354.71,478,340.47,478a59.2,59.2,0,0,0-7.35.46,59.07,59.07,0,0,0-50.69,48.14Q280.63,507,280.61,487a425.43,425.43,0,0,1,4.81-64c1.31-8.65,4.15-49,33.69-71.47,16.79-12.75,35.43-18.27,51.35-18.57s34.52,5.09,53.39,15.84c29.26,16.68,68.69,57.11,87.72,77.44s30.5,30.73,43.66,41.36c3.33,2.73,6.86,5.34,10.54,7.86,2,1.39,4.09,2.73,6.13,4a153.23,153.23,0,0,0,18.4,9.78,122,122,0,0,0,30.59,9.32C641,501.71,658,497.87,667,486.59Z"/><path class="cls-4" d="M719.39,487c0,66.26-18.59,130.15-33.83,149C670,655.31,649.9,669.36,620,666.67c-26.93-2.43-41.17-10.2-54.48-31.86-12.7-20.68-7.68-39.69.46-83.06a186.34,186.34,0,0,0,52.72-22.46A196.66,196.66,0,0,0,667,486.94a206.58,206.58,0,0,0,42.73-90.41A424.12,424.12,0,0,1,719.39,487Z"/><path class="cls-5" d="M719.39,487c0,66.26-18.59,130.15-33.83,149C670,655.31,649.9,669.36,620,666.67c-26.93-2.43-41.17-10.2-54.48-31.86-12.7-20.68-7.68-39.69.46-83.06a186.34,186.34,0,0,0,52.72-22.46A196.66,196.66,0,0,0,667,486.94a206.58,206.58,0,0,0,42.73-90.41A424.12,424.12,0,0,1,719.39,487Z"/><path class="cls-6" d="M709.68,396.53c-8.44-33.85-21.63-45-35.08-53a80.3,80.3,0,0,0-25.2-9.52,74.27,74.27,0,0,0-27.3.56,64.78,64.78,0,0,0-27.91,13c-9.74,7.53-32.14,36.09-36.07,41.72-9.41,13.46-26.37,31.27-40,43.93,15.23,15.88,25.49,25.05,37.06,34.4,3.33,2.73,6.86,5.34,10.54,7.86,2,1.39,4.09,2.73,6.13,4a153.23,153.23,0,0,0,18.4,9.78,122,122,0,0,0,30.59,9.32c20.1,3.12,37.14-.72,46.06-12v.35A206.58,206.58,0,0,0,709.68,396.53Z"/><path class="cls-7" d="M430.38,528.77c-4.62-3-9.09-6.09-13.64-9.63-6.17-4.76-24.32-19.79-35.84-27.74S354.71,478,340.47,478a59.2,59.2,0,0,0-7.35.46,59.07,59.07,0,0,0-50.69,48.14q1.71,18.24,4.93,36c6.93,38.45,16.48,67.55,39.45,90.15s65.76,11.09,74.92,7,32-15.81,38.16-41.2c7.5-30.69-4.86-60.45-9.51-89.74Z"/><path class="cls-8" d="M613.92,516.49c-24.66,4.32-47.86,1.57-64.76-6.69-12.36-6-34.61-19.27-55-36.46-17.9-15.09-58.87-55-88.13-71.67-18.87-10.75-37.47-16.14-53.39-15.84s-30.44,2.85-47.23,15.6a86.06,86.06,0,0,0-19.82,20.41c-.06.44-.12.86-.17,1.21A423.69,423.69,0,0,0,281,469.43c6.13-13.7,15.87-28.45,28.94-35.35,19-10,46.57-9.6,59.15-3.71s20.84,9.44,41.68,23.6,53.72,40.89,76.67,57.8,51.51,28.56,80.22,28.45a214,214,0,0,0,39.48-4.3q5.93-3.1,11.6-6.63A196.66,196.66,0,0,0,667,486.94C658,498.22,633.27,513.09,613.92,516.49Z"/><path class="cls-8" d="M662.86,337.93a75.39,75.39,0,0,0-13.46-3.88,74.09,74.09,0,0,0-23.14-.18,188.24,188.24,0,0,1-.89,21.42c-2,18-16,58.91-33.37,77.77-11.39,12.34-24,26.1-36,35.23,3.09,2.5,6.34,4.9,9.72,7.22,2,1.39,4.09,2.73,6.13,4a154.1,154.1,0,0,0,17.3,9.27c9.32-7.51,19.61-16.66,27.17-25.74,17.7-21.26,29.31-36.93,39.47-72.33C661.24,371.88,662,352,662.86,337.93Z"/><path class="cls-8" d="M659.12,547.39c2-17.2,2.89-39.4,3.34-55.21a196.28,196.28,0,0,1-38.78,33.89c-.11,12.66-1.88,28.65-9.76,56.12a370.21,370.21,0,0,1-30,73.33c9.33,6.57,20.61,9.75,36.11,11.15.61.06,1.19.06,1.8.1a394.16,394.16,0,0,0,18.35-43.37C646.26,605.7,655.84,576.43,659.12,547.39Z"/><path class="cls-8" d="M401.73,659.71a90.64,90.64,0,0,0,10.7-5.68c-5.23-10.68-10.79-22.55-14.4-30.78-6-13.65-17-46.28-22.64-83-3.09-20.09-2.6-39.55-1.53-53.09C363.7,481.58,352,478,340.47,478c-1.77,0-3.52.11-5.24.26-.3,15.32-.17,37.21.87,53.51,1.67,26,9,56.53,19,85.16,6.55,18.76,15.23,35.5,22.69,48.67C388.88,664.24,398,661.38,401.73,659.71Z"/><path class="cls-5" d="M581.6,423.17a93.65,93.65,0,0,1-22.4-35.35c-.44.6-.81,1.1-1.08,1.5-9.41,13.46-26.37,31.27-40,43.93,15.23,15.88,25.49,25.05,37.06,34.4,3.33,2.73,6.86,5.34,10.54,7.86,2,1.39,4.09,2.73,6.13,4a153.23,153.23,0,0,0,18.4,9.78,122,122,0,0,0,30.59,9.32c20.1,3.12,37.14-.72,46.06-12v.35q5.44-6.63,10.33-13.75c-12.18-1-25.36-5.41-36.88-9.55C621.31,456.76,607.57,449.13,581.6,423.17Z"/><path class="cls-5" d="M441.58,586.22c-2-19.43-8.2-38.54-11.2-57.45h0c-4.62-3-9.09-6.09-13.64-9.63-6.17-4.76-24.32-19.79-35.84-27.74S354.71,478,340.47,478a59.2,59.2,0,0,0-7.35.46,59.07,59.07,0,0,0-50.69,48.14l.06.55c2.61-1.44,5.15-2.62,7.41-3.94,9.17-5.35,45.82.76,62.62,9.92C366.41,540.7,414.21,566,441.58,586.22Z"/></g></g></svg>